<svg width="157" height="34" viewBox="0 0 157 34" fill="currenColor" xmlns="http://www.w3.org/2000/svg">
<path fill-rule="evenodd" clip-rule="evenodd" d="M66.2825 26.4447C64.9577 26.4447 63.7473 26.1431 62.6514 25.5399C61.5719 24.9368 60.705 24.1135 60.0507 23.0702C59.4128 22.0105 59.0939 20.8123 59.0939 19.4755C59.0939 18.1224 59.4128 16.9242 60.0507 15.8809C60.705 14.8376 61.5719 14.0143 62.6514 13.4111C63.7473 12.8079 64.9577 12.5064 66.2825 12.5064C67.6074 12.5064 68.8096 12.8079 69.8891 13.4111C70.9686 14.0143 71.8274 14.8376 72.4653 15.8809C73.1195 16.9242 73.4466 18.1224 73.4466 19.4755C73.4466 20.8123 73.1195 22.0105 72.4653 23.0702C71.8274 24.1135 70.9686 24.9368 69.8891 25.5399C68.8096 26.1431 67.6074 26.4447 66.2825 26.4447ZM66.2825 23.1435C66.9531 23.1435 67.5338 22.9886 68.0245 22.6789C68.5315 22.3692 68.9241 21.9372 69.2022 21.3829C69.4966 20.8286 69.6438 20.1928 69.6438 19.4755C69.6438 18.7582 69.4966 18.1306 69.2022 17.5926C68.9241 17.0384 68.5315 16.6063 68.0245 16.2966C67.5338 15.9706 66.9531 15.8075 66.2825 15.8075C65.6119 15.8075 65.0231 15.9706 64.516 16.2966C64.009 16.6063 63.6083 17.0384 63.3138 17.5926C63.0358 18.1306 62.8968 18.7582 62.8968 19.4755C62.8968 20.1928 63.0358 20.8286 63.3138 21.3829C63.6083 21.9372 64.009 22.3692 64.516 22.6789C65.0231 22.9886 65.6119 23.1435 66.2825 23.1435Z" fill="#1B2559"/>
<path d="M80.2517 13.2644C79.7426 13.5615 79.3419 14.07 79.0495 14.7899V12.7998H75.6147V26.1513H79.2949V18.962C79.2949 17.9676 79.573 17.2014 80.1291 16.6634C80.6852 16.1091 81.4131 15.832 82.3127 15.832H83.4658V12.6531H82.6807C81.7484 12.6531 80.9387 12.8568 80.2517 13.2644Z" fill="#1B2559"/>
<path d="M96.9631 15.9787L90.3725 23.2169V26.1513H101.904V22.9723H95.475L101.879 15.7342V12.7998H90.6914V15.9787H96.9631Z" fill="#1B2559"/>
<path fill-rule="evenodd" clip-rule="evenodd" d="M110.177 26.4447C108.852 26.4447 107.641 26.1431 106.545 25.5399C105.466 24.9368 104.599 24.1135 103.945 23.0702C103.307 22.0105 102.988 20.8123 102.988 19.4755C102.988 18.1224 103.307 16.9242 103.945 15.8809C104.599 14.8376 105.466 14.0143 106.545 13.4111C107.641 12.8079 108.852 12.5064 110.177 12.5064C111.501 12.5064 112.704 12.8079 113.783 13.4111C114.863 14.0143 115.721 14.8376 116.359 15.8809C117.013 16.9242 117.341 18.1224 117.341 19.4755C117.341 20.8123 117.013 22.0105 116.359 23.0702C115.721 24.1135 114.863 24.9368 113.783 25.5399C112.704 26.1431 111.501 26.4447 110.177 26.4447ZM110.177 23.1435C110.847 23.1435 111.428 22.9886 111.918 22.6789C112.426 22.3692 112.818 21.9372 113.096 21.3829C113.391 20.8286 113.538 20.1928 113.538 19.4755C113.538 18.7582 113.391 18.1306 113.096 17.5926C112.818 17.0384 112.426 16.6063 111.918 16.2966C111.428 15.9706 110.847 15.8075 110.177 15.8075C109.506 15.8075 108.917 15.9706 108.41 16.2966C107.903 16.6063 107.502 17.0384 107.208 17.5926C106.93 18.1306 106.791 18.7582 106.791 19.4755C106.791 20.1928 106.93 20.8286 107.208 21.3829C107.502 21.9372 107.903 22.3692 108.41 22.6789C108.917 22.9886 109.506 23.1435 110.177 23.1435Z" fill="#1B2559"/>
<path d="M124.244 13.0932C123.687 13.3973 123.253 13.8409 122.944 14.4238V12.7998H119.509V26.1513H123.189V18.3507C123.189 17.829 123.287 17.3807 123.483 17.0058C123.696 16.6308 123.99 16.3374 124.367 16.1254C124.743 15.9135 125.168 15.8075 125.642 15.8075C126.133 15.8075 126.558 15.9135 126.918 16.1254C127.294 16.3374 127.581 16.6308 127.777 17.0058C127.989 17.3807 128.096 17.829 128.096 18.3507V26.1513H131.776V17.5682C131.776 16.5574 131.563 15.6771 131.138 14.9272C130.713 14.161 130.116 13.566 129.347 13.1421C128.595 12.7183 127.711 12.5064 126.697 12.5064C125.765 12.5064 124.947 12.702 124.244 13.0932Z" fill="#1B2559"/>
<path d="M141.728 26.4447C140.289 26.4447 139.005 26.1431 137.876 25.5399C136.748 24.9368 135.856 24.1135 135.202 23.0702C134.564 22.0105 134.245 20.8123 134.245 19.4755V7.93359H138.048V19.231C138.048 19.9483 138.203 20.6004 138.514 21.1873C138.841 21.7578 139.283 22.2061 139.839 22.5322C140.395 22.8582 141.025 23.0212 141.728 23.0212C142.448 23.0212 143.077 22.8582 143.617 22.5322C144.173 22.2061 144.607 21.7578 144.918 21.1873C145.245 20.6004 145.408 19.9483 145.408 19.231V7.93359H149.211V19.4755C149.211 20.8123 148.884 22.0105 148.23 23.0702C147.592 24.1135 146.709 24.9368 145.58 25.5399C144.451 26.1431 143.167 26.4447 141.728 26.4447Z" fill="#1B2559"/>
<path d="M41.9338 26.1513V7.93359H45.7367V15.8075H52.8517V7.93359H56.6546V26.1513H52.8517V19.1087H45.7367V26.1513H41.9338Z" fill="#1B2559"/>
<path d="M85.0787 12.7998H88.7589V26.1513H85.0787V12.7998Z" fill="#1B2559"/>
<path d="M85.0787 11.6016V7.93359H88.7589V11.6016H85.0787Z" fill="#1B2559"/>
<path d="M152.22 7.93359V26.1513H156.023V7.93359H152.22Z" fill="#1B2559"/>
<rect y="0.00012207" width="34" height="34" rx="7.51155" fill="url(#paint0_linear_5229_447)"/>
<g filter="url(#filter0_ddi_5229_447)">
<path fill-rule="evenodd" clip-rule="evenodd" d="M26.5795 16.8791C26.5795 22.2368 22.2362 26.5801 16.8785 26.5801C11.5208 26.5801 7.17749 22.2368 7.17749 16.8791C7.17749 11.5214 11.5208 7.1781 16.8785 7.1781C22.2362 7.1781 26.5795 11.5214 26.5795 16.8791ZM11.9396 19.1552C12.1997 18.4482 12.6094 17.7986 13.1485 17.2552C14.1321 16.2636 15.4661 15.7065 16.8572 15.7065C18.2482 15.7065 19.5823 16.2636 20.5659 17.2552C21.118 17.8118 21.5344 18.4797 21.7934 19.2066C22.1281 18.5011 22.3153 17.712 22.3153 16.8791C22.3153 13.8764 19.8812 11.4423 16.8785 11.4423C13.8758 11.4423 11.4417 13.8764 11.4417 16.8791C11.4417 17.6918 11.62 18.4628 11.9396 19.1552Z" fill="url(#paint1_linear_5229_447)" shape-rendering="crispEdges"/>
</g>
<defs>
<filter id="filter0_ddi_5229_447" x="4.51506" y="4.8523" width="24.4209" height="24.8799" filterUnits="userSpaceOnUse" color-interpolation-filters="sRGB">
<feFlood flood-opacity="0" result="BackgroundImageFix"/>
<feColorMatrix in="SourceAlpha" type="matrix" values="0 0 0 0 0 0 0 0 0 0 0 0 0 0 0 0 0 0 127 0" result="hardAlpha"/>
<feOffset dx="-0.550847" dy="1.04049"/>
<feGaussianBlur stdDeviation="1.05579"/>
<feComposite in2="hardAlpha" operator="out"/>
<feColorMatrix type="matrix" values="0 0 0 0 0.0506089 0 0 0 0 0.0159861 0 0 0 0 0.191833 0 0 0 0.25 0"/>
<feBlend mode="normal" in2="BackgroundImageFix" result="effect1_dropShadow_5229_447"/>
<feColorMatrix in="SourceAlpha" type="matrix" values="0 0 0 0 0 0 0 0 0 0 0 0 0 0 0 0 0 0 127 0" result="hardAlpha"/>
<feOffset dx="0.520244" dy="-0.489642"/>
<feGaussianBlur stdDeviation="0.918078"/>
<feComposite in2="hardAlpha" operator="out"/>
<feColorMatrix type="matrix" values="0 0 0 0 1 0 0 0 0 1 0 0 0 0 1 0 0 0 0.35 0"/>
<feBlend mode="normal" in2="effect1_dropShadow_5229_447" result="effect2_dropShadow_5229_447"/>
<feBlend mode="normal" in="SourceGraphic" in2="effect2_dropShadow_5229_447" result="shape"/>
<feColorMatrix in="SourceAlpha" type="matrix" values="0 0 0 0 0 0 0 0 0 0 0 0 0 0 0 0 0 0 127 0" result="hardAlpha"/>
<feOffset dy="1.28531"/>
<feGaussianBlur stdDeviation="0.810969"/>
<feComposite in2="hardAlpha" operator="arithmetic" k2="-1" k3="1"/>
<feColorMatrix type="matrix" values="0 0 0 0 1 0 0 0 0 1 0 0 0 0 1 0 0 0 1 0"/>
<feBlend mode="normal" in2="shape" result="effect3_innerShadow_5229_447"/>
</filter>
<linearGradient id="paint0_linear_5229_447" x1="20.3" y1="28.2001" x2="27.5306" y2="2.06216" gradientUnits="userSpaceOnUse">
<stop stop-color="#4A25E1"/>
<stop offset="1" stop-color="#9C84FF"/>
</linearGradient>
<linearGradient id="paint1_linear_5229_447" x1="20.2701" y1="16.3107" x2="17.428" y2="29.9149" gradientUnits="userSpaceOnUse">
<stop stop-color="white" stop-opacity="0.96"/>
<stop offset="1" stop-color="white" stop-opacity="0.23"/>
</linearGradient>
</defs>
</svg>
